<svg width="58" height="33" viewBox="0 0 58 33" fill="none" xmlns="http://www.w3.org/2000/svg">
<path d="M19.1643 2.45683L17.0935 9.39403C17.0935 9.39403 13.7519 7.93247 10.5267 8.75372C10.5267 8.75372 8.2453 9.58716 9.20103 11.1862C10.1551 12.7852 15.9288 13.1784 15.9288 13.1784C15.9288 13.1784 11.3951 18.6506 10.8847 19.6789C10.8847 19.6789 3.5968 18.6576 1.58427 15.7553C1.58427 15.7553 0.520634 14.6748 0.0393417 11.9935C0.0393417 11.9935 -0.719423 6.01156 4.4275 3.41902C9.57442 0.82649 14.7761 1.39197 19.1643 2.45683Z" fill="white"/>
<path d="M6.0647 28.363C6.0647 28.363 9.15628 22.1879 9.62901 21.8573C9.62901 21.8573 5.74955 21.144 3.50752 19.4719L0.450196 26.1655C0.448483 26.1655 2.91147 27.8132 6.0647 28.363Z" fill="white"/>
<path d="M24.9707 29.1564L37.051 1.48071H46.0157L58 29.1147L48.6859 29.1129L41.547 10.5146L41.2422 10.5128L41.1736 10.5146L34.194 29.1564H24.9707Z" fill="white"/>
<path d="M41.5298 14.7148L35.0298 32.9774L48.1172 33L41.5298 14.7148Z" fill="#F2A956"/>
<path d="M27.716 2.59082C27.716 2.59082 13.6181 10.8765 5.28711 29.9447C5.28711 29.9447 7.35787 30.4214 8.34101 30.3849C9.32414 30.3483 8.53455 22.7151 27.716 2.59082Z" fill="#F2A956"/>
<path d="M32.1746 0L27.3359 4.6944L28.1666 5.19725L32.1746 0Z" fill="#F2A956"/>
<path d="M26.8086 5.19727L23.7256 8.71023L25.077 9.44971L27.7164 5.72273L26.8086 5.19727Z" fill="#F2A956"/>
<path d="M23.1002 9.55756L19.3252 14.4747L21.3155 15.637L24.616 10.2918L23.1002 9.55756Z" fill="#F2A956"/>
<path d="M18.7567 15.5187C18.7567 15.5187 15.4407 20.6133 15.1992 21.3684L18.0339 22.261C18.0339 22.261 19.8374 17.7632 20.8874 16.5644L18.7567 15.5187Z" fill="#F2A956"/>
<path d="M31.3403 2.59778C31.3403 2.59778 25.0903 13.3559 22.6119 25.7653C22.6119 25.7653 21.1834 28.0168 18.9089 28.9042C16.6343 29.7915 25.9947 8.42489 31.3403 2.59778Z" fill="#F2A956"/>
<path d="M14.778 22.4594C14.778 22.4594 11.8474 27.935 11.6299 30.4997C11.6299 30.4997 13.9798 30.6893 15.5111 30.1117C15.5111 30.1117 15.7731 26.6683 17.664 23.4146L14.778 22.4594Z" fill="#F2A956"/>
</svg>
