<svg width="811" height="308" viewBox="0 0 811 308" fill="none" xmlns="http://www.w3.org/2000/svg">
<path d="M86.89 169.684C69.95 166.094 55.32 162.994 55.32 154.524C55.32 146.044 64.47 141.364 81.09 141.364C95.98 141.364 111.68 145.634 127.74 154.074L129.59 155.044L146.03 116.354L144.53 115.504C127.86 106.064 104.82 100.654 81.33 100.654C56.92 100.654 36.76 106.314 23.04 117.004C10.21 127.014 3.43 140.814 3.43 156.914C3.43 196.104 41.23 204.354 68.83 210.364C86.08 214.124 100.98 217.374 100.98 226.324C100.98 236.014 86.83 238.044 74.97 238.044C56.17 238.044 34.88 231.835 19.4 221.835L17.53 220.624L0 259.085L1.34 259.994C18.09 271.394 46.89 278.754 74.72 278.754C132.22 278.754 152.62 248.574 152.62 222.734C152.62 183.614 114.63 175.564 86.89 169.684Z" fill="white"/>
<path d="M333.96 125.874C316.15 109.614 291.45 100.654 264.41 100.654C237.37 100.654 212.66 109.614 194.86 125.874C176.99 142.194 167.15 164.865 167.15 189.715C167.15 214.565 176.99 237.234 194.86 253.554C212.67 269.814 237.37 278.775 264.41 278.775C291.45 278.775 316.16 269.814 333.96 253.554C351.83 237.234 361.67 214.565 361.67 189.715C361.67 164.865 351.83 142.184 333.96 125.874ZM308.81 189.704C308.81 216.754 290.55 235.654 264.41 235.654C238.27 235.654 220.01 216.764 220.01 189.704C220.01 162.654 238.27 143.754 264.41 143.754C290.55 143.754 308.81 162.654 308.81 189.704Z" fill="white"/>
<path d="M548.11 104.004L490.35 198.965L431.15 104.004H388.21V275.404H436.91V193.754L477.79 258.895H501.5L542.65 191.465L543.11 275.404H591.56L591.06 104.004H548.11Z" fill="white"/>
<path d="M733.02 104.004H682.74L605.27 275.404H659.05L688.36 204.054H688.33L707.51 157.424L726.7 204.054H726.67L755.98 275.404H810.74L733.02 104.004Z" fill="white"/>
<path d="M707.51 189.364L659.05 307.344H755.98L707.51 189.364Z" fill="#F18B1E"/>
<path d="M84.6799 10.6745V31.2845C84.6799 33.0745 86.3799 34.3845 88.1099 33.9245L116.6 26.3645C117.15 26.2145 117.73 26.2445 118.26 26.4445L177.86 48.8245C179.65 49.4945 181.55 48.1745 181.55 46.2645V25.8345C181.55 24.6945 180.84 23.6745 179.78 23.2745L118.26 0.174478C117.73 -0.025522 117.15 -0.0555086 116.6 0.0944914L86.7099 8.02448C85.5099 8.35448 84.6799 9.43448 84.6799 10.6745Z" fill="#F18B1E"/>
<path d="M84.6799 45.6245V66.2345C84.6799 68.0245 86.3799 69.3345 88.1099 68.8745L116.6 61.3145C117.15 61.1645 117.73 61.1945 118.26 61.3945L177.86 83.7745C179.65 84.4445 181.55 83.1245 181.55 81.2145V60.7845C181.55 59.6445 180.84 58.6245 179.78 58.2245L118.26 35.1245C117.73 34.9245 117.15 34.8945 116.6 35.0445L86.7099 42.9745C85.5099 43.3045 84.6799 44.3845 84.6799 45.6245Z" fill="#F18B1E"/>
<path d="M185.82 27.1545V43.9145C185.82 45.3745 187.2 46.4345 188.61 46.0645L211.77 39.9245C212.22 39.8045 212.69 39.8345 213.12 39.9945L261.58 58.1945C263.03 58.7445 264.58 57.6645 264.58 56.1145V39.4845C264.58 38.5545 264.01 37.7345 263.14 37.4045L213.12 18.6245C212.69 18.4645 212.22 18.4345 211.77 18.5545L187.47 25.0045C186.5 25.2645 185.82 26.1445 185.82 27.1545Z" fill="#F18B1E"/>
<path d="M185.82 55.5645V72.3245C185.82 73.7845 187.2 74.8445 188.61 74.4745L211.77 68.3345C212.22 68.2145 212.69 68.2445 213.12 68.4045L261.58 86.6045C263.03 87.1545 264.58 86.0745 264.58 84.5245V67.9145C264.58 66.9845 264.01 66.1645 263.14 65.8345L213.12 47.0545C212.69 46.8945 212.22 46.8645 211.77 46.9845L187.47 53.4345C186.5 53.6745 185.82 54.5545 185.82 55.5645Z" fill="#F18B1E"/>
<path d="M264.58 170.094V153.484C264.58 152.564 264.01 151.734 263.14 151.404L260.33 150.344C250.08 151.244 241.58 155.554 235.66 162.434L261.58 172.164C263.03 172.714 264.58 171.644 264.58 170.094Z" fill="#F18B1E"/>
<path d="M264.58 200.494V183.884C264.58 182.964 264.01 182.134 263.14 181.804L230.86 169.684C228.04 175.304 226.49 181.954 226.44 189.374L261.58 202.574C263.03 203.114 264.58 202.044 264.58 200.494Z" fill="#F18B1E"/>
<path d="M264.58 212.304C264.58 211.374 264.01 210.554 263.14 210.224L226.9 196.614C228.72 209.984 235.9 220.184 246.66 225.384L252.88 227.715C256.45 228.705 260.31 229.234 264.41 229.234C264.45 229.234 264.5 229.234 264.54 229.234C264.56 229.124 264.58 229.024 264.58 228.914V212.304Z" fill="#F18B1E"/>
<path d="M188.61 102.884L211.77 96.7445C212.22 96.6245 212.69 96.6545 213.12 96.8145L224.33 101.024C236.35 96.7145 249.48 94.4045 263.18 94.2745C263.17 94.2645 263.15 94.2545 263.14 94.2545L213.12 75.4745C212.69 75.3145 212.22 75.2845 211.77 75.4045L187.47 81.8545C186.5 82.1145 185.82 82.9945 185.82 84.0045V100.764C185.82 102.194 187.2 103.254 188.61 102.884Z" fill="#F18B1E"/>
<path d="M190.53 121.134C197.72 114.574 205.94 109.134 214.94 104.894L213.13 104.214C212.7 104.054 212.23 104.024 211.78 104.144L187.48 110.594C186.51 110.854 185.83 111.734 185.83 112.744V125.794C187.34 124.194 188.89 122.624 190.53 121.134Z" fill="#F18B1E"/>
<path d="M179.78 128.554L152.15 118.184C152.08 118.414 152.03 118.634 151.93 118.864L142.58 140.854L168.98 150.774C172.23 143.584 176.41 136.854 181.46 130.704C181.33 129.734 180.71 128.904 179.78 128.554Z" fill="#F18B1E"/>
<path d="M139.41 148.344L135.5 157.544C134.8 159.194 133.44 160.474 131.75 161.074C131.05 161.324 130.32 161.444 129.59 161.444C128.56 161.444 127.54 161.194 126.61 160.704L124.76 159.734C111.9 152.984 99.3699 149.074 87.3999 148.054L86.7099 148.234C85.5099 148.554 84.6799 149.634 84.6799 150.874V162.634C85.8499 162.884 87.0299 163.134 88.2199 163.384C94.7699 164.774 102.09 166.334 109.47 168.454L116.6 166.564C117.15 166.414 117.73 166.445 118.26 166.645L161.01 182.694C161.61 174.234 163.29 166.054 165.99 158.304L139.41 148.344Z" fill="#F18B1E"/>
<path d="M158.61 215.404L164.89 217.764C162.19 208.934 160.77 199.594 160.75 189.944L138.69 181.664C149.02 189.134 156.77 199.754 158.61 215.404Z" fill="#F18B1E"/>
<path d="M94.5599 226.324C94.5599 224.444 90.2099 222.554 84.6799 220.874V231.025C91.3999 230.075 94.5599 228.154 94.5599 226.324Z" fill="#F18B1E"/>
<path d="M168.63 227.854L159 224.234C158.79 232.184 156.89 240.435 152.93 248.215L177.85 257.574C179.64 258.244 181.54 256.924 181.54 255.014V248.784C176.28 242.394 171.94 235.374 168.63 227.854Z" fill="#F18B1E"/>
<path d="M179.78 93.1845L118.26 70.0845C117.73 69.8845 117.15 69.8545 116.6 70.0045L86.7099 77.9345C85.5099 78.2545 84.6799 79.3345 84.6799 80.5745V94.2845C94.1899 94.4845 103.6 95.5245 112.55 97.3445L116.6 96.2745C117.15 96.1245 117.73 96.1545 118.26 96.3545L177.86 118.734C179.65 119.404 181.55 118.084 181.55 116.174V95.7445C181.55 94.6045 180.84 93.5845 179.78 93.1845Z" fill="#F18B1E"/>
<path d="M331.33 78.7545C331.33 78.7545 331.23 80.9345 328.85 81.1345C326.47 81.3845 323.54 81.6445 323.13 78.5545C322.72 75.5145 324.14 44.7045 324.14 44.7045C324.14 44.7045 323.94 43.1345 325.76 43.0845C327.63 43.0345 331.22 42.7845 331.28 44.4545L331.33 78.7545Z" fill="white"/>
<path d="M408.19 78.7045C408.19 78.7045 408.09 80.8845 405.71 81.1345C403.38 81.4345 400.45 81.6445 399.99 78.5545C399.84 77.1345 399.99 69.5945 400.19 62.0045C398.01 66.2545 395.89 70.2545 394.78 72.1745C394.38 72.8345 394.12 73.4345 393.41 73.8445C391.79 74.8045 389.06 74.7545 387.79 73.2845C387.03 72.3245 383.94 66.6045 381.06 60.8345L381.21 78.6945C381.21 78.6945 381.11 80.8745 378.73 81.1245C376.35 81.4245 373.42 81.6345 372.96 78.5445C372.55 75.5545 373.82 44.7445 373.82 44.7445C373.82 44.7445 373.57 43.1745 375.44 43.0745C376.55 43.0245 380.2 42.7745 381.01 43.9845C384.25 50.1045 387.54 56.2345 390.93 62.2545C394.22 56.3845 397.51 50.3645 400.6 44.3945C400.8 43.7845 401.76 43.1245 402.47 43.0745C404.29 43.0245 407.83 42.7245 407.93 44.4445L408.19 78.7045Z" fill="white"/>
<path d="M454.17 75.3645C451.39 71.7745 449.87 67.0645 449.87 62.2045C449.87 57.1945 451.39 52.5345 454.17 48.9945C457.1 45.1545 461.15 43.0245 465.45 43.0245C469.8 43.0245 473.8 45.1545 476.73 48.9945C479.51 52.5345 480.98 57.1945 480.98 62.2045C480.98 67.0645 479.51 71.7645 476.73 75.3645C473.8 79.2145 469.8 81.2845 465.45 81.2845C461.16 81.2845 457.11 79.2145 454.17 75.3645ZM457.21 62.2045C457.21 68.5845 461 73.9945 465.46 73.9945C469.96 73.9945 473.76 68.5845 473.76 62.2045C473.76 55.7245 469.97 50.3145 465.46 50.3145C461 50.3145 457.21 55.7345 457.21 62.2045ZM471.07 33.1645C471.53 33.9745 471.07 34.1745 471.07 34.1745C467.83 36.6545 465.71 38.6245 462.32 41.1045C461.26 41.5645 460.45 40.3945 459.79 39.3845C459.18 38.3745 459.79 37.8145 459.79 37.8145C463.18 35.2845 465.61 33.6145 469.05 31.2345C469.56 30.8845 470.52 32.4045 471.07 33.1645Z" fill="white"/>
<path d="M553.54 48.1445C551.26 52.9545 547.32 61.9545 544.84 68.3345C543.37 72.0245 541.96 75.8745 540.49 79.9745C540.49 79.9745 540.34 80.7345 539.68 81.0345C538.67 81.5445 532.9 81.4345 531.99 80.8845C531.53 80.6345 531.13 80.2245 530.83 79.6245C530.48 78.9145 529.62 76.4845 528.55 73.2445C527.44 69.9545 526.17 65.8545 525.06 61.8645C523.64 56.6045 522.13 51.3445 521.06 45.9745C521.06 45.9745 520.5 44.4545 522.27 43.9545C524.04 43.3945 527.43 42.2345 527.94 43.8545C530.32 52.7045 533.05 61.4645 536.09 70.1145C538.92 61.7645 542.06 53.5145 545.7 45.4745C546.41 43.9545 547.57 42.6445 549.44 43.3445C551.62 44.0945 554.86 45.3045 553.54 48.1445Z" fill="white"/>
<path d="M617.34 75.9245C617.24 78.3045 616.93 81.1845 615.62 81.5445C615.27 81.6445 614.2 81.5445 612.79 81.3945C608.84 81.0945 604.85 81.0445 600.44 81.3945C598.31 81.5945 595.89 81.6445 594.93 79.0145C594.68 78.2045 594.47 75.5745 594.47 72.2345C594.47 63.3845 594.42 54.1745 595.08 45.3145C595.08 43.6445 596.7 43.0845 598.37 43.0845C603.83 42.8345 610.72 42.6845 615.98 42.7345C615.98 42.7345 616.49 42.8345 616.84 43.5445C617.65 44.9645 617.6 50.2245 615.93 50.9845C614.92 51.2345 606.37 50.6345 602.93 50.5845L602.73 58.6845L612.14 58.6345C614.67 58.9845 613.91 65.6645 612.49 66.1745C611.83 66.3745 606.01 66.1245 602.62 65.8745C602.57 68.5045 602.62 71.0345 602.72 73.6145C606.21 73.2645 611.37 73.1545 615.17 73.2645C617.14 73.2445 617.44 73.7945 617.34 75.9245Z" fill="white"/>
<path d="M667.03 78.7545C667.03 78.7545 666.93 80.9345 664.55 81.1345C662.17 81.3845 659.24 81.6445 658.83 78.5545C658.42 75.5145 659.84 44.7045 659.84 44.7045C659.84 44.7045 659.64 43.1345 661.46 43.0845C663.33 43.0345 666.92 42.7845 666.98 44.4545L667.03 78.7545Z" fill="white"/>
<path d="M732.35 64.9445C734.93 69.1445 734.02 74.8145 730.22 78.2545C727.44 80.5345 723.74 81.3945 720.05 81.1845C714.79 80.9345 709.58 77.9445 708.41 72.4345C708.26 71.5745 708.16 70.7145 708.31 69.9045C708.97 67.2245 712.26 65.5045 713.57 65.3045C714.94 65.1045 715.19 66.2645 715.14 66.5145C715.34 69.2445 717.06 72.5845 719.95 73.4445C720.61 73.6445 721.37 73.6945 722.18 73.4945C724.1 72.9845 724.96 71.5245 724.91 70.3045C724.86 69.1945 724.1 67.9245 722.89 66.8645C718.39 63.0745 711.56 61.2445 709.33 55.1745C706.75 47.1245 714.84 42.5745 721.62 42.9245C727.39 43.2245 732.95 46.6145 734.07 51.6745C734.63 54.7145 730.53 57.2445 728.61 56.8845C727.9 56.6345 727.45 56.0745 727.14 55.3145C723.8 47.2745 717.58 49.5944 717.88 53.5444C717.93 54.3044 718.59 55.1645 719.5 55.9245C723.49 59.2745 729.56 60.4345 732.35 64.9445Z" fill="white"/>
</svg>
