<?xml version="1.0" encoding="utf-8"?>
<!-- Generator: Adobe Illustrator 24.0.1, SVG Export Plug-In . SVG Version: 6.00 Build 0)  -->
<svg version="1.1" id="Camada_1" xmlns="http://www.w3.org/2000/svg" xmlns:xlink="http://www.w3.org/1999/xlink" x="0px" y="0px"
	 viewBox="0 0 1000 400" style="enable-background:new 0 0 1000 400;" xml:space="preserve">
<style type="text/css">
	.st0{fill:#FD8700;}
</style>
<path d="M241.74,123.57l-12.09,39.87c0,0-19.51-8.4-38.34-3.68c0,0-13.32,4.79-7.74,13.98c5.57,9.19,39.28,11.45,39.28,11.45
	s-26.47,31.45-29.45,37.36c0,0-42.55-5.87-54.3-22.55c0,0-6.21-6.21-9.02-21.62c0,0-4.43-34.38,25.62-49.28
	S216.12,117.45,241.74,123.57z"/>
<path d="M165.26,272.46c0,0,18.05-35.49,20.81-37.39c0,0-22.65-4.1-35.74-13.71l-17.85,38.47
	C132.47,259.83,146.85,269.3,165.26,272.46z"/>
<polygon points="275.64,277.02 346.17,117.96 398.51,117.96 468.48,276.78 414.1,276.77 372.42,169.88 370.64,169.87 370.24,169.88 
	329.49,277.02 "/>
<polygon class="st0" points="372.32,194.02 334.37,298.98 410.78,299.11 "/>
<path class="st0" d="M291.67,124.34c0,0-82.31,47.62-130.95,157.21c0,0,12.09,2.74,17.83,2.53S179.68,240,291.67,124.34z"/>
<polygon class="st0" points="317.7,109.45 289.45,136.43 294.3,139.32 "/>
<polygon class="st0" points="286.37,139.32 268.37,159.51 276.26,163.76 291.67,142.34 "/>
<polygon class="st0" points="264.72,164.38 242.68,192.64 254.3,199.32 273.57,168.6 "/>
<path class="st0" d="M239.36,198.64c0,0-19.36,29.28-20.77,33.62l16.55,5.13c0,0,10.53-25.85,16.66-32.74L239.36,198.64z"/>
<path class="st0" d="M312.83,124.38c0,0-36.49,61.83-50.96,133.15c0,0-8.34,12.94-21.62,18.04S281.62,157.87,312.83,124.38z"/>
<path class="st0" d="M216.13,238.53c0,0-17.11,31.47-18.38,46.21c0,0,13.72,1.09,22.66-2.23c0,0,1.53-19.79,12.57-38.49
	L216.13,238.53z"/>
</svg>
