<svg width="1713" height="308" viewBox="0 0 1713 308" fill="none" xmlns="http://www.w3.org/2000/svg">
<path d="M988.47 169.85C971.53 166.26 956.9 163.16 956.9 154.69C956.9 146.21 966.05 141.54 982.67 141.54C997.56 141.54 1013.26 145.81 1029.32 154.25L1031.17 155.22L1047.61 116.53L1046.12 115.68C1029.45 106.24 1006.41 100.83 982.92 100.83C958.51 100.83 938.35 106.49 924.63 117.18C911.8 127.19 905.02 140.99 905.02 157.09C905.02 196.28 942.82 204.53 970.42 210.54C987.67 214.3 1002.57 217.55 1002.57 226.5C1002.57 236.19 988.42 238.22 976.56 238.22C957.76 238.22 936.47 232.01 920.99 222.01L919.12 220.8L901.59 259.25L902.93 260.16C919.68 271.56 948.48 278.92 976.31 278.92C1033.81 278.92 1054.21 248.74 1054.21 222.9C1054.2 183.78 1016.2 175.73 988.47 169.85Z" fill="white"/>
<path d="M1235.54 126.04C1217.73 109.78 1193.03 100.82 1165.99 100.82C1138.95 100.82 1114.24 109.78 1096.44 126.04C1078.57 142.36 1068.73 165.03 1068.73 189.88C1068.73 214.73 1078.57 237.4 1096.44 253.72C1114.25 269.98 1138.95 278.94 1165.99 278.94C1193.03 278.94 1217.74 269.98 1235.54 253.72C1253.41 237.4 1263.25 214.73 1263.25 189.88C1263.25 165.03 1253.41 142.36 1235.54 126.04ZM1210.38 189.87C1210.38 216.92 1192.12 235.82 1165.98 235.82C1139.84 235.82 1121.58 216.93 1121.58 189.87C1121.58 162.82 1139.84 143.92 1165.98 143.92C1192.12 143.93 1210.38 162.82 1210.38 189.87Z" fill="white"/>
<path d="M1449.68 104.17L1391.93 199.13L1332.72 104.17H1289.78V275.58H1338.48V193.93L1379.36 259.06H1403.07L1444.22 191.64L1444.68 275.58H1493.13L1492.63 104.17H1449.68Z" fill="white"/>
<path d="M1634.59 104.17H1584.32L1506.85 275.58H1560.62L1589.93 204.23H1589.9L1609.09 157.59L1628.27 204.23H1628.24L1657.55 275.58H1712.31L1634.59 104.17Z" fill="white"/>
<path d="M1609.09 189.53L1560.62 307.52H1657.55L1609.09 189.53Z" fill="#F18B1E"/>
<path d="M986.26 10.84V31.45C986.26 33.24 987.96 34.55 989.69 34.09L1018.18 26.53C1018.73 26.38 1019.31 26.41 1019.84 26.61L1079.44 48.99C1081.23 49.66 1083.13 48.34 1083.13 46.43V26C1083.13 24.86 1082.42 23.84 1081.36 23.44L1019.84 0.340005C1019.31 0.140005 1018.73 0.110019 1018.18 0.260019L988.29 8.19001C987.09 8.52001 986.26 9.61 986.26 10.84Z" fill="#F18B1E"/>
<path d="M986.26 45.79V66.4C986.26 68.19 987.96 69.5 989.69 69.04L1018.18 61.48C1018.73 61.33 1019.31 61.36 1019.84 61.56L1079.44 83.94C1081.23 84.61 1083.13 83.29 1083.13 81.38V60.95C1083.13 59.81 1082.42 58.79 1081.36 58.39L1019.84 35.29C1019.31 35.09 1018.73 35.06 1018.18 35.21L988.29 43.14C987.09 43.47 986.26 44.55 986.26 45.79Z" fill="#F18B1E"/>
<path d="M1087.4 27.32V44.08C1087.4 45.54 1088.78 46.6 1090.19 46.23L1113.35 40.09C1113.8 39.97 1114.27 40 1114.7 40.16L1163.16 58.36C1164.61 58.91 1166.16 57.83 1166.16 56.28V39.67C1166.16 38.74 1165.59 37.92 1164.72 37.59L1114.7 18.81C1114.27 18.65 1113.8 18.62 1113.35 18.74L1089.05 25.19C1088.08 25.43 1087.4 26.31 1087.4 27.32Z" fill="#F18B1E"/>
<path d="M1087.4 55.73V72.49C1087.4 73.95 1088.78 75.01 1090.19 74.64L1113.35 68.5C1113.8 68.38 1114.27 68.41 1114.7 68.57L1163.16 86.77C1164.61 87.32 1166.16 86.24 1166.16 84.69V68.08C1166.16 67.15 1165.59 66.33 1164.72 66L1114.7 47.22C1114.27 47.06 1113.8 47.03 1113.35 47.15L1089.05 53.6C1088.08 53.85 1087.4 54.73 1087.4 55.73Z" fill="#F18B1E"/>
<path d="M1166.15 170.26V153.65C1166.15 152.73 1165.58 151.9 1164.71 151.57L1161.9 150.51C1151.65 151.41 1143.15 155.72 1137.23 162.6L1163.15 172.33C1164.61 172.88 1166.15 171.81 1166.15 170.26Z" fill="#F18B1E"/>
<path d="M1166.15 200.66V184.05C1166.15 183.13 1165.58 182.3 1164.71 181.97L1132.43 169.85C1129.61 175.47 1128.06 182.12 1128.01 189.54L1163.15 202.74C1164.61 203.29 1166.15 202.21 1166.15 200.66Z" fill="#F18B1E"/>
<path d="M1166.15 212.47C1166.15 211.54 1165.58 210.72 1164.71 210.39L1128.47 196.78C1130.29 210.15 1137.47 220.35 1148.23 225.55L1154.44 227.88C1158.01 228.87 1161.87 229.4 1165.97 229.4C1166.01 229.4 1166.06 229.4 1166.1 229.4C1166.12 229.29 1166.14 229.19 1166.14 229.08V212.47H1166.15Z" fill="#F18B1E"/>
<path d="M1090.19 103.05L1113.35 96.91C1113.8 96.79 1114.27 96.82 1114.7 96.98L1125.91 101.19C1137.94 96.88 1151.06 94.57 1164.76 94.43C1164.75 94.42 1164.73 94.41 1164.72 94.41L1114.7 75.63C1114.27 75.47 1113.8 75.44 1113.35 75.56L1089.05 82.01C1088.08 82.27 1087.4 83.15 1087.4 84.16V100.92C1087.4 102.36 1088.78 103.42 1090.19 103.05Z" fill="#F18B1E"/>
<path d="M1092.1 121.3C1099.29 114.74 1107.51 109.3 1116.51 105.06L1114.7 104.38C1114.27 104.22 1113.8 104.19 1113.35 104.31L1089.05 110.76C1088.08 111.02 1087.4 111.9 1087.4 112.91V125.96C1088.91 124.36 1090.46 122.8 1092.1 121.3Z" fill="#F18B1E"/>
<path d="M1081.35 128.72L1053.73 118.35C1053.66 118.58 1053.61 118.8 1053.51 119.03L1044.16 141.02L1070.56 150.94C1073.81 143.75 1077.99 137.02 1083.04 130.87C1082.91 129.9 1082.28 129.07 1081.35 128.72Z" fill="#F18B1E"/>
<path d="M1040.98 148.51L1037.07 157.71C1036.37 159.36 1035.01 160.64 1033.32 161.24C1032.62 161.49 1031.89 161.61 1031.16 161.61C1030.13 161.61 1029.11 161.36 1028.18 160.87L1026.33 159.9C1013.47 153.15 1000.94 149.24 988.97 148.22L988.28 148.4C987.08 148.72 986.25 149.8 986.25 151.04V162.8C987.42 163.05 988.6 163.3 989.79 163.55C996.34 164.94 1003.66 166.5 1011.04 168.62L1018.17 166.73C1018.72 166.58 1019.3 166.61 1019.83 166.81L1062.58 182.86C1063.18 174.4 1064.86 166.22 1067.56 158.47L1040.98 148.51Z" fill="#F18B1E"/>
<path d="M1060.18 215.57L1066.46 217.93C1063.76 209.1 1062.34 199.76 1062.32 190.11L1040.26 181.83C1050.59 189.3 1058.34 199.92 1060.18 215.57Z" fill="#F18B1E"/>
<path d="M996.14 226.5C996.14 224.62 991.79 222.73 986.26 221.05V231.2C992.98 230.25 996.14 228.32 996.14 226.5Z" fill="#F18B1E"/>
<path d="M1070.2 228.02L1060.57 224.4C1060.36 232.35 1058.46 240.6 1054.5 248.38L1079.42 257.74C1081.21 258.41 1083.11 257.09 1083.11 255.18V248.95C1077.85 242.56 1073.52 235.54 1070.2 228.02Z" fill="#F18B1E"/>
<path d="M1081.35 93.3599L1019.83 70.2599C1019.3 70.0599 1018.72 70.0299 1018.17 70.1799L988.28 78.1099C987.08 78.4299 986.25 79.5099 986.25 80.7499V94.4599C995.76 94.6599 1005.17 95.6999 1014.12 97.5199L1018.17 96.4499C1018.72 96.2999 1019.3 96.3299 1019.83 96.5299L1079.43 118.91C1081.22 119.58 1083.12 118.26 1083.12 116.35V95.92C1083.12 94.78 1082.41 93.7599 1081.35 93.3599Z" fill="#F18B1E"/>
<path d="M1232.9 78.9199C1232.9 78.9199 1232.8 81.0999 1230.42 81.2999C1228.04 81.5499 1225.11 81.8099 1224.7 78.7199C1224.29 75.6799 1225.71 44.8699 1225.71 44.8699C1225.71 44.8699 1225.51 43.2999 1227.33 43.2499C1229.2 43.1999 1232.79 42.9499 1232.85 44.6199L1232.9 78.9199Z" fill="white"/>
<path d="M1309.76 78.87C1309.76 78.87 1309.66 81.05 1307.28 81.3C1304.95 81.6 1302.02 81.81 1301.56 78.72C1301.41 77.3 1301.56 69.76 1301.76 62.17C1299.58 66.42 1297.46 70.42 1296.35 72.34C1295.95 73 1295.69 73.6 1294.98 74.01C1293.36 74.97 1290.63 74.92 1289.36 73.45C1288.6 72.49 1285.51 66.77 1282.63 61L1282.78 78.86C1282.78 78.86 1282.68 81.04 1280.3 81.29C1277.92 81.59 1274.99 81.8 1274.53 78.71C1274.12 75.72 1275.39 44.91 1275.39 44.91C1275.39 44.91 1275.14 43.34 1277.01 43.24C1278.12 43.19 1281.77 42.94 1282.58 44.15C1285.82 50.27 1289.11 56.4 1292.5 62.42C1295.79 56.55 1299.08 50.53 1302.17 44.56C1302.37 43.95 1303.33 43.29 1304.04 43.24C1305.86 43.19 1309.4 42.89 1309.5 44.61L1309.76 78.87Z" fill="white"/>
<path d="M1355.75 75.5299C1352.97 71.9399 1351.45 67.2299 1351.45 62.3699C1351.45 57.3599 1352.97 52.6999 1355.75 49.1599C1358.68 45.3199 1362.73 43.1899 1367.03 43.1899C1371.38 43.1899 1375.38 45.3199 1378.31 49.1599C1381.09 52.6999 1382.56 57.3599 1382.56 62.3699C1382.56 67.2299 1381.09 71.9299 1378.31 75.5299C1375.38 79.3799 1371.38 81.4499 1367.03 81.4499C1362.73 81.4499 1358.68 79.3799 1355.75 75.5299ZM1358.78 62.3799C1358.78 68.7599 1362.57 74.1699 1367.03 74.1699C1371.53 74.1699 1375.33 68.7599 1375.33 62.3799C1375.33 55.8999 1371.54 50.4899 1367.03 50.4899C1362.58 50.4899 1358.78 55.8999 1358.78 62.3799ZM1372.65 33.3299C1373.11 34.1399 1372.65 34.3399 1372.65 34.3399C1369.41 36.8199 1367.29 38.7899 1363.9 41.2699C1362.84 41.7299 1362.03 40.5599 1361.37 39.5499C1360.76 38.5399 1361.37 37.9799 1361.37 37.9799C1364.76 35.4499 1367.19 33.7799 1370.63 31.3999C1371.13 31.0599 1372.09 32.5799 1372.65 33.3299Z" fill="white"/>
<path d="M1455.12 48.3099C1452.84 53.1199 1448.9 62.1199 1446.42 68.4999C1444.95 72.1899 1443.54 76.0399 1442.07 80.1399C1442.07 80.1399 1441.92 80.8999 1441.26 81.1999C1440.25 81.7099 1434.48 81.5999 1433.57 81.0499C1433.11 80.7999 1432.71 80.3899 1432.41 79.7899C1432.06 79.0799 1431.2 76.6499 1430.13 73.4099C1429.02 70.1199 1427.75 66.0199 1426.64 62.0299C1425.22 56.7699 1423.71 51.5099 1422.64 46.1399C1422.64 46.1399 1422.08 44.6199 1423.85 44.1199C1425.62 43.5599 1429.01 42.3999 1429.52 44.0199C1431.9 52.8699 1434.63 61.6299 1437.67 70.2799C1440.5 61.9299 1443.64 53.6799 1447.28 45.6399C1447.99 44.1199 1449.15 42.8099 1451.02 43.5099C1453.2 44.2599 1456.43 45.4799 1455.12 48.3099Z" fill="white"/>
<path d="M1518.92 76.09C1518.82 78.47 1518.51 81.35 1517.2 81.71C1516.85 81.81 1515.78 81.71 1514.37 81.56C1510.42 81.26 1506.43 81.21 1502.02 81.56C1499.89 81.76 1497.47 81.81 1496.51 79.18C1496.26 78.37 1496.05 75.74 1496.05 72.4C1496.05 63.55 1496 54.34 1496.66 45.48C1496.66 43.81 1498.28 43.25 1499.95 43.25C1505.41 43 1512.3 42.85 1517.56 42.9C1517.56 42.9 1518.07 43 1518.42 43.71C1519.23 45.13 1519.18 50.39 1517.51 51.15C1516.5 51.4 1507.95 50.8 1504.51 50.75L1504.31 58.85L1513.72 58.8C1516.25 59.15 1515.49 65.83 1514.07 66.34C1513.41 66.54 1507.59 66.29 1504.2 66.04C1504.15 68.67 1504.2 71.2 1504.3 73.78C1507.79 73.43 1512.95 73.32 1516.75 73.43C1518.72 73.41 1519.02 73.96 1518.92 76.09Z" fill="white"/>
<path d="M1568.6 78.9199C1568.6 78.9199 1568.5 81.0999 1566.12 81.2999C1563.74 81.5499 1560.81 81.8099 1560.4 78.7199C1559.99 75.6799 1561.41 44.8699 1561.41 44.8699C1561.41 44.8699 1561.21 43.2999 1563.03 43.2499C1564.9 43.1999 1568.49 42.9499 1568.55 44.6199L1568.6 78.9199Z" fill="white"/>
<path d="M1633.92 65.1098C1636.5 69.3098 1635.59 74.9799 1631.79 78.4199C1629.01 80.6999 1625.31 81.5599 1621.62 81.3499C1616.36 81.0999 1611.15 78.1099 1609.98 72.5999C1609.83 71.7399 1609.73 70.8799 1609.88 70.0699C1610.54 67.3899 1613.83 65.6699 1615.14 65.4699C1616.51 65.2699 1616.76 66.4299 1616.71 66.6799C1616.91 69.4099 1618.63 72.7498 1621.52 73.6098C1622.18 73.8098 1622.94 73.8599 1623.75 73.6599C1625.67 73.1499 1626.53 71.6899 1626.48 70.4699C1626.43 69.3599 1625.67 68.0899 1624.46 67.0299C1619.96 63.2399 1613.13 61.4099 1610.9 55.3399C1608.32 47.2899 1616.41 42.7399 1623.19 43.0899C1628.96 43.3899 1634.52 46.7799 1635.64 51.8399C1636.2 54.8799 1632.1 57.4099 1630.18 57.0499C1629.47 56.7999 1629.02 56.2399 1628.71 55.4799C1625.37 47.4399 1619.15 49.7599 1619.45 53.7099C1619.5 54.4699 1620.16 55.3299 1621.07 56.0899C1625.07 59.4399 1631.14 60.6098 1633.92 65.1098Z" fill="white"/>
<path d="M123.82 106.64L110.58 150.32C110.58 150.32 89.22 141.12 68.6 146.29C68.6 146.29 54.01 151.54 60.12 161.61C66.22 171.68 103.13 174.15 103.13 174.15C103.13 174.15 74.14 208.61 70.88 215.08C70.88 215.08 24.29 208.65 11.42 190.37C11.42 190.37 4.62003 183.57 1.54003 166.68C1.54003 166.68 -3.30997 129.01 29.59 112.69C62.51 96.38 95.76 99.9201 123.82 106.64Z" fill="white"/>
<path d="M36.88 275.93C36.88 275.93 55.89 236.67 58.88 234.53C58.88 234.53 34 230.52 19.46 220.26L0.719971 262.78C0.719971 262.78 16.67 272.85 36.88 275.93Z" fill="white"/>
<path d="M632.53 274.81L709.76 100.54H767.07L843.69 274.55L784.14 274.53L738.51 157.43L736.56 157.42H736.12L691.49 274.82H632.53V274.81Z" fill="white"/>
<path d="M738.39 183.87L696.85 298.87L780.51 299L738.39 183.87Z" fill="#FD8700"/>
<path d="M178.06 107.01C178.06 107.01 87.93 159.18 34.67 279.25C34.67 279.25 47.91 282.25 54.19 282.02C60.48 281.8 55.43 233.73 178.06 107.01Z" fill="#FD8700"/>
<path d="M203.91 93L176 119.67L180.79 122.53L203.91 93Z" fill="#FD8700"/>
<path d="M172.26 123.43L152.55 145.55L161.19 150.21L178.06 126.74L172.26 123.43Z" fill="#FD8700"/>
<path d="M148.55 150.88L124.42 181.84L137.14 189.16L158.24 155.5L148.55 150.88Z" fill="#FD8700"/>
<path d="M120.78 188.42C120.78 188.42 99.58 220.5 98.04 225.25L116.16 230.87C116.16 230.87 127.69 202.55 134.4 195L120.78 188.42Z" fill="#FD8700"/>
<path d="M201.23 107.06C201.23 107.06 161.27 174.8 145.43 252.94C145.43 252.94 136.3 267.12 121.76 272.71C107.21 278.29 167.06 143.75 201.23 107.06Z" fill="#FD8700"/>
<path d="M95.35 232.12C95.35 232.12 76.61 266.6 75.22 282.75C75.22 282.75 90.24 283.94 100.03 280.31C100.03 280.31 101.71 258.63 113.79 238.14L95.35 232.12Z" fill="#FD8700"/>
<path d="M402.77 273.98H455.33V197.7H457.29L494.01 257.56L520.02 257.84L557.48 195.36H558.51V273.97H612V100.07H563.82L508.56 192.29L506.79 192.38L451.06 100.07L402.78 100.26V273.98H402.77Z" fill="white"/>
<path d="M286.11 277.07C258.26 277.07 235.57 269.12 218.04 253.2C200.5 237.28 191.74 216.54 191.74 190.97C191.74 163.97 200.64 142.14 218.45 125.46C236.25 108.78 259.85 100.45 289.23 100.45C316.98 100.45 339.43 108.43 356.55 124.39C373.68 140.35 382.24 161.39 382.24 187.51C382.24 214.35 373.36 235.98 355.6 252.41C337.84 268.85 314.67 277.07 286.11 277.07ZM288 133.55C272.64 133.55 260.43 138.61 251.39 148.74C242.35 158.86 237.83 172.26 237.83 188.94C237.83 205.86 242.35 219.23 251.39 229.07C260.42 238.92 272.27 243.84 286.91 243.84C302.01 243.84 313.98 239.05 322.84 229.49C331.7 219.93 336.12 206.65 336.12 189.65C336.12 171.94 331.83 158.17 323.24 148.32C314.67 138.47 302.92 133.55 288 133.55Z" fill="white"/>
</svg>
