<svg width="843" height="595" viewBox="0 0 843 595" fill="none" xmlns="http://www.w3.org/2000/svg">
<path d="M102.88 169.685C85.94 166.095 71.3101 162.995 71.3101 154.525C71.3101 146.045 80.4601 141.375 97.0801 141.375C111.97 141.375 127.67 145.645 143.73 154.085L145.58 155.055L162.02 116.365L160.53 115.515C143.86 106.075 120.82 100.665 97.3301 100.665C72.9201 100.665 52.76 106.325 39.04 117.015C26.21 127.025 19.4301 140.825 19.4301 156.925C19.4301 196.115 57.2301 204.365 84.8301 210.375C102.08 214.135 116.98 217.385 116.98 226.335C116.98 236.025 102.83 238.055 90.9701 238.055C72.1701 238.055 50.88 231.845 35.4 221.845L33.53 220.635L16 259.085L17.3401 259.995C34.0901 271.395 62.8901 278.755 90.7201 278.755C148.22 278.755 168.62 248.575 168.62 222.735C168.61 183.615 130.61 175.565 102.88 169.685Z" fill="white"/>
<path d="M349.95 125.875C332.14 109.615 307.44 100.655 280.4 100.655C253.36 100.655 228.65 109.615 210.85 125.875C192.98 142.195 183.14 164.865 183.14 189.715C183.14 214.565 192.98 237.234 210.85 253.555C228.66 269.814 253.36 278.775 280.4 278.775C307.44 278.775 332.15 269.814 349.95 253.555C367.82 237.234 377.66 214.565 377.66 189.715C377.66 164.865 367.82 142.195 349.95 125.875ZM324.79 189.705C324.79 216.755 306.53 235.655 280.39 235.655C254.25 235.655 235.99 216.765 235.99 189.705C235.99 162.655 254.25 143.755 280.39 143.755C306.53 143.765 324.79 162.655 324.79 189.705Z" fill="white"/>
<path d="M564.09 104.005L506.34 198.965L447.13 104.005H404.19V275.415H452.89V193.764L493.77 258.895H517.48L558.63 191.475L559.09 275.415H607.54L607.04 104.005H564.09Z" fill="white"/>
<path d="M749 104.005H698.73L621.26 275.415H675.03L704.34 204.064H704.31L723.5 157.424L742.68 204.064H742.65L771.96 275.415H826.72L749 104.005Z" fill="white"/>
<path d="M723.5 189.365L675.03 307.354H771.96L723.5 189.365Z" fill="#F18B1E"/>
<path d="M100.67 10.6745V31.2845C100.67 33.0745 102.37 34.3845 104.1 33.9245L132.59 26.3645C133.14 26.2145 133.72 26.2445 134.25 26.4445L193.85 48.8245C195.64 49.4945 197.54 48.1745 197.54 46.2645V25.8345C197.54 24.6945 196.83 23.6745 195.77 23.2745L134.25 0.174478C133.72 -0.025522 133.14 -0.0555086 132.59 0.0944914L102.7 8.02448C101.5 8.35448 100.67 9.44448 100.67 10.6745Z" fill="#F18B1E"/>
<path d="M100.67 45.6244V66.2344C100.67 68.0244 102.37 69.3344 104.1 68.8744L132.59 61.3145C133.14 61.1645 133.72 61.1944 134.25 61.3944L193.85 83.7744C195.64 84.4444 197.54 83.1244 197.54 81.2144V60.7845C197.54 59.6445 196.83 58.6245 195.77 58.2245L134.25 35.1244C133.72 34.9244 133.14 34.8944 132.59 35.0444L102.7 42.9745C101.5 43.3045 100.67 44.3844 100.67 45.6244Z" fill="#F18B1E"/>
<path d="M201.81 27.1544V43.9144C201.81 45.3744 203.19 46.4345 204.6 46.0645L227.76 39.9244C228.21 39.8044 228.68 39.8344 229.11 39.9944L277.57 58.1944C279.02 58.7444 280.57 57.6644 280.57 56.1144V39.5045C280.57 38.5745 280 37.7544 279.13 37.4244L229.11 18.6444C228.68 18.4844 228.21 18.4544 227.76 18.5744L203.46 25.0244C202.49 25.2644 201.81 26.1444 201.81 27.1544Z" fill="#F18B1E"/>
<path d="M201.81 55.5645V72.3245C201.81 73.7845 203.19 74.8445 204.6 74.4745L227.76 68.3345C228.21 68.2145 228.68 68.2445 229.11 68.4045L277.57 86.6045C279.02 87.1545 280.57 86.0745 280.57 84.5245V67.9145C280.57 66.9845 280 66.1645 279.13 65.8345L229.11 47.0545C228.68 46.8945 228.21 46.8645 227.76 46.9845L203.46 53.4345C202.49 53.6845 201.81 54.5645 201.81 55.5645Z" fill="#F18B1E"/>
<path d="M280.56 170.094V153.484C280.56 152.564 279.99 151.734 279.12 151.404L276.31 150.344C266.06 151.244 257.56 155.554 251.64 162.434L277.56 172.164C279.02 172.714 280.56 171.644 280.56 170.094Z" fill="#F18B1E"/>
<path d="M280.56 200.494V183.884C280.56 182.964 279.99 182.134 279.12 181.804L246.84 169.684C244.02 175.304 242.47 181.954 242.42 189.374L277.56 202.574C279.02 203.124 280.56 202.044 280.56 200.494Z" fill="#F18B1E"/>
<path d="M280.56 212.304C280.56 211.374 279.99 210.554 279.12 210.224L242.88 196.615C244.7 209.985 251.88 220.184 262.64 225.384L268.85 227.714C272.42 228.704 276.28 229.234 280.38 229.234C280.42 229.234 280.47 229.234 280.51 229.234C280.53 229.124 280.55 229.024 280.55 228.914V212.304H280.56Z" fill="#F18B1E"/>
<path d="M204.6 102.884L227.76 96.7445C228.21 96.6245 228.68 96.6545 229.11 96.8145L240.32 101.025C252.35 96.7145 265.47 94.4045 279.17 94.2645C279.16 94.2545 279.14 94.2445 279.13 94.2445L229.11 75.4645C228.68 75.3045 228.21 75.2745 227.76 75.3945L203.46 81.8445C202.49 82.1045 201.81 82.9845 201.81 83.9945V100.755C201.81 102.195 203.19 103.254 204.6 102.884Z" fill="#F18B1E"/>
<path d="M206.51 121.134C213.7 114.574 221.92 109.134 230.92 104.894L229.11 104.215C228.68 104.055 228.21 104.024 227.76 104.144L203.46 110.595C202.49 110.855 201.81 111.735 201.81 112.745V125.794C203.32 124.194 204.87 122.634 206.51 121.134Z" fill="#F18B1E"/>
<path d="M195.76 128.554L168.14 118.184C168.07 118.414 168.02 118.634 167.92 118.864L158.57 140.854L184.97 150.774C188.22 143.584 192.4 136.854 197.45 130.704C197.32 129.734 196.69 128.904 195.76 128.554Z" fill="#F18B1E"/>
<path d="M155.39 148.344L151.48 157.544C150.78 159.194 149.42 160.474 147.73 161.074C147.03 161.324 146.3 161.444 145.57 161.444C144.54 161.444 143.52 161.194 142.59 160.704L140.74 159.734C127.88 152.984 115.35 149.074 103.38 148.054L102.69 148.234C101.49 148.554 100.66 149.634 100.66 150.874V162.634C101.83 162.884 103.01 163.134 104.2 163.384C110.75 164.774 118.07 166.334 125.45 168.454L132.58 166.564C133.13 166.414 133.71 166.444 134.24 166.644L176.99 182.694C177.59 174.234 179.27 166.054 181.97 158.304L155.39 148.344Z" fill="#F18B1E"/>
<path d="M174.59 215.405L180.87 217.765C178.17 208.935 176.75 199.595 176.73 189.945L154.67 181.665C165 189.135 172.75 199.755 174.59 215.405Z" fill="#F18B1E"/>
<path d="M110.55 226.335C110.55 224.455 106.2 222.565 100.67 220.885V231.035C107.39 230.085 110.55 228.155 110.55 226.335Z" fill="#F18B1E"/>
<path d="M184.61 227.855L174.98 224.235C174.77 232.185 172.87 240.435 168.91 248.215L193.83 257.575C195.62 258.245 197.52 256.925 197.52 255.015V248.785C192.26 242.395 187.93 235.375 184.61 227.855Z" fill="#F18B1E"/>
<path d="M195.76 93.1944L134.24 70.0944C133.71 69.8944 133.13 69.8644 132.58 70.0144L102.69 77.9444C101.49 78.2644 100.66 79.3444 100.66 80.5844V94.2944C110.17 94.4944 119.58 95.5344 128.53 97.3544L132.58 96.2844C133.13 96.1344 133.71 96.1644 134.24 96.3644L193.84 118.744C195.63 119.414 197.53 118.094 197.53 116.184V95.7544C197.53 94.6144 196.82 93.5944 195.76 93.1944Z" fill="#F18B1E"/>
<path d="M347.31 78.7544C347.31 78.7544 347.21 80.9344 344.83 81.1344C342.45 81.3844 339.52 81.6444 339.11 78.5544C338.7 75.5144 340.12 44.7044 340.12 44.7044C340.12 44.7044 339.92 43.1344 341.74 43.0844C343.61 43.0344 347.2 42.7844 347.26 44.4544L347.31 78.7544Z" fill="white"/>
<path d="M424.17 78.7045C424.17 78.7045 424.07 80.8845 421.69 81.1345C419.36 81.4345 416.43 81.6445 415.97 78.5545C415.82 77.1345 415.97 69.5945 416.17 62.0045C413.99 66.2545 411.87 70.2545 410.76 72.1745C410.36 72.8345 410.1 73.4345 409.39 73.8445C407.77 74.8045 405.04 74.7545 403.77 73.2845C403.01 72.3245 399.92 66.6045 397.04 60.8345L397.19 78.6945C397.19 78.6945 397.09 80.8745 394.71 81.1245C392.33 81.4245 389.4 81.6345 388.94 78.5445C388.53 75.5545 389.8 44.7445 389.8 44.7445C389.8 44.7445 389.55 43.1745 391.42 43.0745C392.53 43.0245 396.18 42.7745 396.99 43.9845C400.23 50.1045 403.52 56.2345 406.91 62.2545C410.2 56.3845 413.49 50.3645 416.58 44.3945C416.78 43.7845 417.74 43.1245 418.45 43.0745C420.27 43.0245 423.81 42.7245 423.91 44.4445L424.17 78.7045Z" fill="white"/>
<path d="M470.16 75.3644C467.38 71.7744 465.86 67.0644 465.86 62.2044C465.86 57.1944 467.38 52.5344 470.16 48.9944C473.09 45.1544 477.14 43.0244 481.44 43.0244C485.79 43.0244 489.79 45.1544 492.72 48.9944C495.5 52.5344 496.97 57.1944 496.97 62.2044C496.97 67.0644 495.5 71.7644 492.72 75.3644C489.79 79.2144 485.79 81.2844 481.44 81.2844C477.14 81.2844 473.09 79.2144 470.16 75.3644ZM473.19 62.2144C473.19 68.5944 476.98 74.0044 481.44 74.0044C485.94 74.0044 489.74 68.5944 489.74 62.2144C489.74 55.7344 485.95 50.3244 481.44 50.3244C476.99 50.3244 473.19 55.7344 473.19 62.2144ZM487.06 33.1644C487.52 33.9744 487.06 34.1744 487.06 34.1744C483.82 36.6544 481.7 38.6244 478.31 41.1044C477.25 41.5644 476.44 40.3944 475.78 39.3844C475.17 38.3744 475.78 37.8144 475.78 37.8144C479.17 35.2844 481.6 33.6144 485.04 31.2344C485.54 30.8944 486.5 32.4144 487.06 33.1644Z" fill="white"/>
<path d="M569.53 48.1444C567.25 52.9544 563.31 61.9544 560.83 68.3344C559.36 72.0244 557.95 75.8744 556.48 79.9744C556.48 79.9744 556.33 80.7344 555.67 81.0344C554.66 81.5444 548.89 81.4343 547.98 80.8843C547.52 80.6343 547.12 80.2244 546.82 79.6244C546.47 78.9144 545.61 76.4844 544.54 73.2444C543.43 69.9544 542.16 65.8544 541.05 61.8644C539.63 56.6044 538.12 51.3444 537.05 45.9744C537.05 45.9744 536.49 44.4544 538.26 43.9544C540.03 43.3944 543.42 42.2343 543.93 43.8543C546.31 52.7043 549.04 61.4644 552.08 70.1144C554.91 61.7644 558.05 53.5144 561.69 45.4744C562.4 43.9544 563.56 42.6444 565.43 43.3444C567.61 44.0944 570.84 45.3144 569.53 48.1444Z" fill="white"/>
<path d="M633.33 75.9244C633.23 78.3044 632.92 81.1844 631.61 81.5444C631.26 81.6444 630.19 81.5444 628.78 81.3944C624.83 81.0944 620.84 81.0444 616.43 81.3944C614.3 81.5944 611.88 81.6444 610.92 79.0144C610.67 78.2044 610.46 75.5744 610.46 72.2344C610.46 63.3844 610.41 54.1744 611.07 45.3145C611.07 43.6445 612.69 43.0844 614.36 43.0844C619.82 42.8344 626.71 42.6844 631.97 42.7344C631.97 42.7344 632.48 42.8344 632.83 43.5444C633.64 44.9644 633.59 50.2244 631.92 50.9844C630.91 51.2344 622.36 50.6344 618.92 50.5844L618.72 58.6844L628.13 58.6344C630.66 58.9844 629.9 65.6644 628.48 66.1744C627.82 66.3744 622 66.1244 618.61 65.8744C618.56 68.5044 618.61 71.0344 618.71 73.6144C622.2 73.2644 627.36 73.1544 631.16 73.2644C633.13 73.2444 633.43 73.7944 633.33 75.9244Z" fill="white"/>
<path d="M683.01 78.7544C683.01 78.7544 682.91 80.9344 680.53 81.1344C678.15 81.3844 675.22 81.6444 674.81 78.5544C674.4 75.5144 675.82 44.7044 675.82 44.7044C675.82 44.7044 675.62 43.1344 677.44 43.0844C679.31 43.0344 682.9 42.7844 682.96 44.4544L683.01 78.7544Z" fill="white"/>
<path d="M748.33 64.9443C750.91 69.1443 750 74.8143 746.2 78.2543C743.42 80.5343 739.72 81.3943 736.03 81.1843C730.77 80.9343 725.56 77.9443 724.39 72.4343C724.24 71.5743 724.14 70.7143 724.29 69.9043C724.95 67.2243 728.24 65.5043 729.55 65.3043C730.92 65.1043 731.17 66.2643 731.12 66.5143C731.32 69.2443 733.04 72.5843 735.93 73.4443C736.59 73.6443 737.35 73.6943 738.16 73.4943C740.08 72.9843 740.94 71.5243 740.89 70.3043C740.84 69.1943 740.08 67.9243 738.87 66.8643C734.37 63.0743 727.54 61.2443 725.31 55.1743C722.73 47.1243 730.82 42.5743 737.6 42.9243C743.37 43.2243 748.93 46.6143 750.05 51.6743C750.61 54.7143 746.51 57.2443 744.59 56.8843C743.88 56.6343 743.43 56.0743 743.12 55.3143C739.78 47.2743 733.56 49.5943 733.86 53.5443C733.91 54.3043 734.57 55.1643 735.48 55.9243C739.48 59.2743 745.55 60.4443 748.33 64.9443Z" fill="white"/>
<path d="M123.1 402.64L109.86 446.32C109.86 446.32 88.5001 437.12 67.8801 442.29C67.8801 442.29 53.2901 447.54 59.4001 457.61C65.5001 467.68 102.41 470.15 102.41 470.15C102.41 470.15 73.4201 504.61 70.1601 511.08C70.1601 511.08 23.5701 504.65 10.7001 486.37C10.7001 486.37 3.90006 479.57 0.820062 462.68C0.820062 462.68 -4.02994 425.01 28.8701 408.69C61.7901 392.38 95.0401 395.92 123.1 402.64Z" fill="white"/>
<path d="M36.16 571.93C36.16 571.93 55.17 532.67 58.16 530.53C58.16 530.53 33.28 526.52 18.74 516.26L0 558.78C0 558.78 15.95 568.85 36.16 571.93Z" fill="white"/>
<path d="M631.81 570.81L709.04 396.54H766.35L842.97 570.55L783.42 570.53L737.79 453.43L735.84 453.42H735.4L690.77 570.82H631.81V570.81Z" fill="white"/>
<path d="M737.67 479.87L696.13 594.87L779.79 595L737.67 479.87Z" fill="#FD8700"/>
<path d="M177.34 403.01C177.34 403.01 87.2101 455.18 33.9501 575.25C33.9501 575.25 47.1901 578.25 53.4701 578.02C59.7601 577.8 54.7101 529.73 177.34 403.01Z" fill="#FD8700"/>
<path d="M203.19 389L175.28 415.67L180.07 418.53L203.19 389Z" fill="#FD8700"/>
<path d="M171.54 419.43L151.83 441.55L160.47 446.21L177.34 422.74L171.54 419.43Z" fill="#FD8700"/>
<path d="M147.83 446.88L123.7 477.84L136.42 485.16L157.52 451.5L147.83 446.88Z" fill="#FD8700"/>
<path d="M120.06 484.42C120.06 484.42 98.8601 516.5 97.3201 521.25L115.44 526.87C115.44 526.87 126.97 498.55 133.68 491L120.06 484.42Z" fill="#FD8700"/>
<path d="M200.51 403.06C200.51 403.06 160.55 470.8 144.71 548.94C144.71 548.94 135.58 563.12 121.04 568.71C106.49 574.29 166.34 439.75 200.51 403.06Z" fill="#FD8700"/>
<path d="M94.63 528.12C94.63 528.12 75.89 562.6 74.5 578.75C74.5 578.75 89.52 579.94 99.31 576.31C99.31 576.31 100.99 554.63 113.07 534.14L94.63 528.12Z" fill="#FD8700"/>
<path d="M402.05 569.98H454.61V493.7H456.57L493.29 553.56L519.3 553.84L556.76 491.36H557.79V569.97H611.28V396.07H563.1L507.84 488.29L506.07 488.38L450.34 396.07L402.06 396.26V569.98H402.05Z" fill="white"/>
<path d="M285.39 573.07C257.54 573.07 234.85 565.12 217.32 549.2C199.78 533.28 191.02 512.54 191.02 486.97C191.02 459.97 199.92 438.14 217.73 421.46C235.53 404.78 259.13 396.45 288.51 396.45C316.26 396.45 338.71 404.43 355.83 420.39C372.96 436.35 381.52 457.39 381.52 483.51C381.52 510.35 372.64 531.98 354.88 548.41C337.12 564.85 313.95 573.07 285.39 573.07ZM287.28 429.55C271.92 429.55 259.71 434.61 250.67 444.74C241.63 454.86 237.11 468.26 237.11 484.94C237.11 501.86 241.63 515.23 250.67 525.07C259.7 534.92 271.55 539.84 286.19 539.84C301.29 539.84 313.26 535.05 322.12 525.49C330.98 515.93 335.4 502.65 335.4 485.65C335.4 467.94 331.11 454.17 322.52 444.32C313.95 434.47 302.2 429.55 287.28 429.55Z" fill="white"/>
</svg>
