<svg width="67" height="71" viewBox="0 0 90 70" fill="none" xmlns="http://www.w3.org/2000/svg">
<path d="M55.4104 0.332812L55.0257 0.665625L54.9432 11.3434L53.4456 11.3988C52.0855 11.4404 51.9206 11.4682 51.6046 11.7732L51.2474 12.1061V70.3205L51.5908 70.6533L51.9206 71H65.8247L66.1544 70.6533L66.4979 70.3205V12.1061L66.1544 11.7871C65.8659 11.5098 65.6186 11.4404 64.8492 11.3988C63.7088 11.3295 63.0219 11.5375 62.8021 12.009C62.5822 12.4943 62.6097 12.6607 62.9395 13.0906C63.173 13.3818 63.3379 13.4512 63.8325 13.4512H64.437V68.9199H53.3082V13.4512H56.3309C59.2573 13.4512 59.3535 13.4373 59.6283 13.1461C59.9306 12.8133 59.9855 12.3418 59.7657 11.9258C59.5733 11.5652 58.9001 11.3711 57.8972 11.3711H57.0178V9.36035L61.2907 7.64082C63.6402 6.69785 65.7285 5.78262 65.9209 5.61621C66.3743 5.22793 66.4155 4.42363 66.017 4.03535C65.701 3.71641 56.5507 0 56.0973 0C55.9324 0 55.6164 0.152539 55.4104 0.332812ZM60.2878 3.81348C61.593 4.34043 62.6097 4.81191 62.5548 4.85352C62.4448 4.95059 57.2102 7.07227 57.0865 7.07227C57.0453 7.07227 57.0178 6.04609 57.0178 4.78418V2.49609L57.4712 2.67637C57.7048 2.77344 58.9826 3.28652 60.2878 3.81348Z" fill="white"/>
<path d="M29.7454 10.3172C28.77 10.7471 28.028 11.898 28.028 12.952C28.028 13.6314 28.8524 16.8209 29.1409 17.3062C29.3195 17.5836 29.1821 17.7639 26.6816 20.2877C24.4696 22.5342 24.0437 23.0334 24.0437 23.3662C24.0437 23.699 24.3459 24.0734 25.6649 25.4047C27.8494 27.6096 27.6296 27.6234 30.1576 25.0857L32.1086 23.1443L32.1773 24.6975C32.2322 26.1812 32.2597 26.2645 32.6169 26.5834C32.8643 26.8053 33.1665 26.9023 33.5237 26.9023H34.0733L34.142 70.3344L34.9114 71H48.6644L49.4613 70.1957V62.2914C49.4613 57.9371 49.42 54.2762 49.3788 54.1514C49.2414 53.7908 48.5132 53.5273 48.1011 53.6799C47.3866 53.9572 47.4141 53.7769 47.4004 61.598V68.9199H36.1342V26.9023H47.4004V38.4676C47.4004 49.9496 47.4004 50.0189 47.6889 50.3934C48.0599 50.8648 48.7468 50.8926 49.159 50.435L49.4613 50.116V35.9576C49.4613 22.243 49.4475 21.7854 49.2002 21.4803C48.9529 21.1752 48.8155 21.1475 47.3042 21.0781L45.683 21.0088L45.6005 19.6914C45.4219 16.7932 43.8694 14.6715 41.2452 13.6869C40.572 13.4512 40.0361 13.3957 37.2471 13.3264L34.0183 13.2432L33.7848 12.4389C33.4825 11.4127 33.0016 10.7887 32.246 10.4143C31.559 10.0814 30.3912 10.026 29.7454 10.3172ZM31.5041 12.4527C31.6415 12.5914 31.875 13.2432 32.0399 13.9088C32.3422 15.0736 32.3422 15.1014 32.0949 15.3787C31.8613 15.6422 30.927 16.0166 30.8171 15.8918C30.7209 15.7947 30.0889 13.2848 30.0889 13.0074C30.0889 12.3002 31.0369 11.9396 31.5041 12.4527ZM37.9203 19.1367H37.2471C36.67 19.1367 36.5189 19.1922 36.2853 19.4973C36.0243 19.8439 35.9968 20.052 35.9968 22.34V24.8223H34.3481V15.3926H37.9203V19.1367ZM41.0116 15.8641C41.8635 16.2662 42.7428 17.1398 43.1687 17.9996C43.4297 18.5404 43.4984 18.9564 43.5671 20.4541C43.6083 21.4387 43.6908 22.3539 43.732 22.4648C43.9518 22.9225 44.4327 23.075 45.9303 23.1305L47.4004 23.1859V24.8223H44.9685C41.7261 24.8223 41.9047 24.9887 41.9047 22.0488C41.9047 20.052 41.8772 19.8301 41.6162 19.4973C41.3826 19.1922 41.2315 19.1367 40.6544 19.1367H39.9812V17.334C39.9812 15.9889 40.0224 15.5312 40.1598 15.5312C40.2422 15.5312 40.6407 15.6838 41.0116 15.8641ZM27.7533 24.6143L27.135 23.9902L26.5167 23.3801L29.292 20.565L32.0811 17.75L32.1636 20.1629L27.7533 24.6143ZM39.8438 22.7977C39.8438 23.6713 39.885 24.4756 39.9262 24.6004C39.9949 24.7945 39.8713 24.8223 39.0332 24.8223H38.0577V21.2168H39.8438V22.7977Z" fill="white"/>
<path d="M17.6549 28.5664L15.8551 30.3691L15.6215 29.9531C15.333 29.4677 14.4262 28.8992 13.7118 28.7744C12.3516 28.5248 10.7853 29.6064 10.4556 31.0347C10.3044 31.6726 10.3182 31.8668 10.6479 33.1564C10.8403 33.9468 11.0738 34.7095 11.1563 34.8482C11.2387 35.0146 11.2937 36.2488 11.2799 38.0515C11.2524 42.4474 11.4997 43.8064 12.6401 45.3179L13.1897 46.039V51.7246H0.590787L0.302263 52.0435L0 52.3625V70.3205L0.343481 70.6533L0.673223 71H7.5978C14.2201 71 14.5499 70.9861 14.8521 70.7365L15.1819 70.473L15.3193 55.6767L17.0367 55.5935V70.1957L17.8335 71H31.5865L32.3559 70.3343V38.939L31.9712 38.6062C31.4216 38.1347 30.35 38.1347 29.8829 38.6201C29.4157 39.0777 29.4432 39.5908 29.9515 40.0761L30.3637 40.4644V68.9199H19.0975V51.8632H20.5951C21.9965 51.8632 22.1339 51.8355 22.4911 51.5304L22.8758 51.1976V47.814C22.8758 44.6246 22.8621 44.4166 22.5736 43.8896C21.969 42.7525 21.0348 42.1562 19.8532 42.1562H19.0975V40.3535H26.1183L26.448 40.0068C26.8877 39.5769 26.8877 39.05 26.448 38.6201C26.187 38.3427 25.9809 38.2734 25.4176 38.2734H24.7306V36.7619C24.7306 35.9298 24.6894 35.1394 24.6482 35.0146C24.4558 34.5431 23.8513 34.3906 22.0377 34.3906H20.2929L21.8866 32.7404C23.4391 31.1457 23.7414 30.6742 23.5765 30.1334C23.5353 29.9808 22.7934 29.1627 21.9278 28.3168C19.8395 26.2228 20.0043 26.2228 17.6549 28.5664ZM20.5676 29.8422L21.1584 30.4246L19.2487 32.3798C18.1908 33.4476 17.2702 34.5015 17.1878 34.7095C17.1054 34.9314 17.0367 36.1795 17.0367 37.6632V40.2287L13.3958 40.1455L13.3133 35.8605L16.5833 32.5601C18.3831 30.7435 19.8807 29.2597 19.9082 29.2597C19.9494 29.2597 20.2516 29.5232 20.5676 29.8422ZM13.7667 31.0625C14.385 31.5478 14.33 31.9222 13.5332 32.7265L12.8187 33.4476L12.5851 32.5185C12.3516 31.5478 12.4065 31.215 12.8874 30.9377C13.2309 30.7297 13.382 30.7574 13.7667 31.0625ZM22.6697 38.2734H19.0975V36.4707H22.6697V38.2734ZM17.0367 42.8634C17.0367 43.9589 17.4901 44.2363 19.2349 44.2363C20.815 44.2363 20.815 44.2224 20.815 47.2732V49.7138L19.0975 49.797V48.2162C19.0975 46.1638 19.0151 46.039 17.5862 45.8865C15.594 45.6646 14.1102 44.4582 13.5469 42.6L13.4507 42.2949H17.0367V42.8634ZM16.5283 47.8556L17.0367 47.9943V53.5273H15.2506V47.5367L15.6353 47.6199C15.8413 47.6754 16.2398 47.7863 16.5283 47.8556ZM13.1897 68.9199H2.06089V53.8046H13.1897V68.9199Z" fill="white"/>
</svg>
