<svg width="81" height="57" viewBox="0 0 81 60" fill="none" xmlns="http://www.w3.org/2000/svg">
<path d="M39.4465 0.379688L39.0068 0.759375L38.9597 4.06582C38.8969 7.79941 39.0225 8.51133 39.7605 8.76445C40.0275 8.85938 40.3415 8.85938 40.6241 8.76445C41.3464 8.51133 41.472 7.79941 41.4092 4.06582L41.3621 0.759375L40.9225 0.379688C40.6869 0.174023 40.3415 0 40.1845 0C40.0275 0 39.682 0.174023 39.4465 0.379688Z" fill="#EEEEEE"/>
<path d="M30.8419 3.95508C30.6849 4.1291 30.5593 4.49297 30.5593 4.76192C30.5593 5.17324 30.9204 5.61621 33.1344 7.84688C35.5368 10.2674 35.7409 10.4414 36.2904 10.4414C36.9656 10.4414 37.3582 10.0143 37.3582 9.2707C37.3582 8.8752 36.9499 8.38477 34.8145 6.21738C32.4592 3.82852 32.2237 3.63867 31.6898 3.63867C31.3287 3.63867 31.0303 3.74941 30.8419 3.95508Z" fill="#EEEEEE"/>
<path d="M45.5545 6.21738C43.419 8.38477 43.0108 8.8752 43.0108 9.2707C43.0108 10.0143 43.4033 10.4414 44.0785 10.4414C44.6281 10.4414 44.8322 10.2674 47.2346 7.84688C49.4485 5.61621 49.8097 5.17324 49.8097 4.76192C49.8097 4.08164 49.37 3.63867 48.6791 3.63867C48.1453 3.63867 47.9097 3.82852 45.5545 6.21738Z" fill="#EEEEEE"/>
<path d="M60.9579 6.9293C59.215 7.95762 57.6448 8.92266 57.4721 9.08086C56.9854 9.52383 57.0639 10.0143 57.8176 11.4381C58.1787 12.1342 58.4142 12.7195 58.32 12.767C58.2415 12.7986 56.6556 13.7004 54.8028 14.7762L51.4269 16.7379L48.318 15.14L45.2247 13.5264H43.9058C42.6811 13.5264 42.5083 13.5738 41.2208 14.2066L39.839 14.9027L38.8812 14.4439C38.0333 14.0643 37.7193 14.001 36.4161 14.001H34.9244L33.0402 14.9818C32.0039 15.5197 30.6535 16.2316 30.0568 16.548L28.9577 17.1334L25.4562 15.1084C23.5406 13.9852 21.9704 13.0043 21.9704 12.9252C21.9704 12.8461 22.2531 12.3082 22.5985 11.707C23.2423 10.5996 23.3365 10.1566 23.0696 9.65039C22.9439 9.39726 17.4012 6.04336 16.255 5.52129C15.2972 5.07832 15.5013 4.76191 7.61903 18.5256C3.56797 25.5814 0.192096 31.5457 0.0978849 31.7988C-0.21615 32.6373 0.0507798 32.8746 3.55227 34.9154C5.35797 35.9596 6.97526 36.8613 7.14798 36.9246C7.83885 37.1461 8.2471 36.7664 9.1264 35.216C9.58175 34.3775 10.0057 33.7131 10.0685 33.7447C10.1156 33.7605 10.5867 34.425 11.1048 35.216C12.251 36.9879 13.7741 38.6332 15.046 39.4717C15.674 39.883 15.9881 40.1836 15.941 40.3418C15.8939 40.4684 15.7525 40.8639 15.6269 41.2119C15.1088 42.5883 15.4856 44.202 16.4905 44.9613C17.5896 45.784 19.1284 46.5275 19.9135 46.6225C20.6044 46.7016 20.7457 46.7807 21.0126 47.2395C21.3267 47.7615 22.3002 48.4734 23.6976 49.217C24.2001 49.4701 24.6711 49.5809 25.3777 49.5809C26.2256 49.5967 26.3826 49.6441 26.6653 50.0238C26.8537 50.2611 27.6545 50.8307 28.4553 51.2895C29.7585 52.033 29.994 52.1279 30.8419 52.1121C31.627 52.1121 31.8311 52.1754 32.0667 52.476C32.4278 52.9348 35.2227 54.5168 35.9293 54.6592C36.6359 54.8174 37.735 54.4693 38.3317 53.9314C38.5829 53.6783 38.8341 53.4727 38.8812 53.4727C38.9283 53.4727 39.9333 54.0422 41.1109 54.7225C43.9529 56.3836 44.5653 56.5418 46.1511 56.0672C47.3288 55.7191 48.5535 54.4693 48.8833 53.2828L49.1345 52.4285L50.1708 52.4918C52.2905 52.6342 54.1119 51.2736 54.5516 49.2328C54.6301 48.8215 54.7243 48.7266 54.9127 48.8215C55.4309 49.043 56.954 49.0746 57.5506 48.8848C59.1051 48.3785 60.3141 46.9547 60.5183 45.3727C60.6282 44.6449 60.6439 44.6133 61.1149 44.6133C61.3976 44.6133 61.9314 44.4551 62.324 44.2811C64.9148 43.1104 65.6213 39.5824 63.69 37.6049C63.219 37.1145 60.4083 35.4059 53.7665 31.5457L44.5182 26.1826L46.8577 26.1035C49.2287 26.0244 49.7783 25.8979 49.9824 25.3758C50.1708 24.9012 50.0766 24.3633 49.7626 24.0469C49.4642 23.7463 49.2444 23.7305 44.4397 23.7305H39.4308L35.207 26.1826C30.4965 28.9195 30.3395 28.9828 29.4131 28.1127C28.785 27.5432 28.5495 26.5781 28.8792 25.9611C29.0676 25.5973 35.4582 20.3924 37.0441 19.3008C37.5309 18.9686 39.0697 18.0668 40.4357 17.2916C42.8067 15.9785 42.9794 15.9152 43.8744 15.9152C44.7694 15.9152 44.9735 15.9943 47.9726 17.608C49.7155 18.5414 51.2699 19.3008 51.4269 19.3008C51.5997 19.3008 53.531 18.2566 55.7135 16.991C57.8961 15.7254 59.7018 14.7129 59.7175 14.7445C59.7489 14.7762 61.8215 18.399 64.3495 22.8129L68.9501 30.8338L68.4319 31.7514C68.1493 32.2576 67.5841 33.2068 67.1601 33.8713C66.7519 34.5357 66.4064 35.2635 66.4064 35.485C66.4064 36.4658 67.7254 36.9088 68.4162 36.1811C68.6047 35.9912 69.0914 35.2477 69.5311 34.5199L70.3005 33.2227L71.0384 34.5199C71.9962 36.1969 72.3103 36.5449 72.8912 36.5449C73.4408 36.5449 79.4703 33.1277 80.0355 32.4949C80.224 32.2734 80.381 31.957 80.381 31.783C80.381 31.4666 78.1356 27.385 77.4448 26.4516C77.1464 26.0561 76.958 25.9453 76.5183 25.9453C75.8746 25.9453 75.3564 26.4041 75.3564 26.9895C75.3564 27.2268 75.8589 28.3025 76.4712 29.3783C77.0836 30.4541 77.5704 31.3559 77.539 31.3875C77.5076 31.4033 76.5655 31.957 75.4663 32.5898C73.7548 33.5707 73.4251 33.7131 73.2524 33.5232C72.8598 33.0961 59.9687 10.4256 60.0472 10.299C60.2199 10.0143 64.0826 7.87851 64.1925 8.00508C64.271 8.08418 66.1709 11.3906 68.4319 15.3457C70.693 19.3008 72.7185 22.7021 72.9383 22.892C73.4251 23.335 73.7862 23.3508 74.3201 22.9236C74.6027 22.7021 74.7283 22.449 74.7283 22.101C74.7283 21.7213 73.5193 19.4748 70.1591 13.6055C67.6469 9.20742 65.4486 5.48965 65.2759 5.33144C65.1032 5.18906 64.7734 5.0625 64.5379 5.0625C64.3181 5.07832 62.7479 5.88516 60.9579 6.9293ZM18.4061 9.47637C19.678 10.2041 20.3846 10.7104 20.3375 10.8369C20.306 10.9477 19.7565 11.9127 19.1441 12.9885C17.9508 15.0768 17.888 15.4564 18.5475 16.0102C19.1441 16.5322 19.9763 16.3107 20.3846 15.5355C20.4788 15.3457 20.6515 15.1875 20.7457 15.1875C20.8242 15.1875 22.6142 16.1842 24.7182 17.4023C26.995 18.7313 28.6908 19.6172 28.9263 19.6172C29.1618 19.6172 30.7634 18.8736 32.4906 17.9402C35.5368 16.3266 35.6467 16.2791 36.526 16.3266L37.4367 16.374L36.1805 17.1176C34.736 17.9561 27.9214 23.3824 27.2148 24.2684C26.0058 25.7396 26.1157 27.9228 27.4818 29.4891C28.2668 30.3908 29.1147 30.8496 30.2139 30.9604C31.3287 31.0711 31.8625 30.8812 34.6889 29.2201C40.0903 26.0877 39.8076 26.2143 40.2159 26.4357C41.896 27.3375 61.8372 39.0129 62.057 39.2344C62.4653 39.6299 62.5752 40.6582 62.2612 41.2594C61.9628 41.8289 61.2876 42.2402 60.6439 42.2402C60.3455 42.2402 58.2101 41.0854 54.3946 38.8705C51.1914 37.0037 46.2925 34.1561 43.5133 32.5424C40.0903 30.549 38.2846 29.584 37.9705 29.584C37.7193 29.584 37.3739 29.7264 37.2011 29.9004C36.8086 30.2959 36.7772 31.1818 37.154 31.5141C37.3111 31.6564 41.896 34.3459 47.3288 37.4941C52.7773 40.6582 57.4093 43.4109 57.6448 43.6166C58.3985 44.3285 58.3043 45.5309 57.4407 46.2586C56.4986 47.0654 56.7027 47.1603 46.1826 41.0379C40.8597 37.9529 36.3218 35.3742 36.0863 35.3268C35.7566 35.2635 35.5525 35.3426 35.2541 35.6432C34.7517 36.1494 34.736 36.7189 35.207 37.241C35.3954 37.4467 39.0854 39.6615 43.4033 42.1611C47.7213 44.6766 51.4426 46.8914 51.6782 47.1129C52.8244 48.1728 52.0707 50.1504 50.5162 50.1504C49.9981 50.1504 48.7262 49.4701 42.4298 45.7998C38.3003 43.4109 34.7988 41.4492 34.6104 41.4492C34.1864 41.4492 33.5897 41.8764 33.5897 42.1928C33.5897 42.3668 33.5112 42.3984 33.3228 42.3193C32.6633 42.0346 31.4386 41.7656 31.1246 41.8131C30.8262 41.8764 30.732 41.7814 30.6064 41.291C30.3395 40.2785 29.5073 39.2344 28.5652 38.6965C27.8272 38.2693 27.5446 38.2061 26.5554 38.2061C25.4405 38.2061 25.4248 38.2061 25.2678 37.7314C24.8753 36.5133 23.3365 35.39 21.7977 35.1844C20.6358 35.0262 19.4268 35.4533 18.5475 36.3551C18.1392 36.7664 17.6839 37.3359 17.5425 37.6207L17.2599 38.1428L16.3021 37.4783C14.7947 36.4025 13.3973 34.6781 11.937 32.0836L11.4346 31.1818L14.3708 26.0719C15.9881 23.2559 17.4012 20.7563 17.4954 20.4873C17.8252 19.7121 17.307 18.842 16.5062 18.8262C16.3021 18.8262 15.941 19.016 15.7211 19.2533C15.4856 19.5064 13.4287 22.9553 11.1519 26.942L7.00666 34.1719L6.51991 33.8871C6.25297 33.7289 5.31087 33.191 4.41587 32.6689C3.53657 32.1627 2.82999 31.6881 2.84569 31.6248C3.00271 31.2135 16.255 8.22656 16.3178 8.2582C16.3649 8.28984 17.307 8.82773 18.4061 9.47637ZM22.1275 37.7314C22.7555 38.0637 23.2266 38.7123 23.2266 39.2818C23.2266 39.7723 21.2482 43.4426 20.6672 44.0279C20.306 44.3918 19.8978 44.3127 18.783 43.6324C17.8409 43.0471 17.731 42.9363 17.731 42.4301C17.731 42.0979 19.2069 39.3293 19.9763 38.2377C20.4788 37.4941 21.311 37.3043 22.1275 37.7314ZM27.4818 40.8639C28.1412 41.3068 28.4396 41.8605 28.3454 42.4934C28.2354 43.2844 26.0058 47.0338 25.5504 47.2078C25.2364 47.3186 24.9538 47.2236 24.0431 46.6857C22.9753 46.0529 22.8183 45.8631 22.9125 45.2461C22.9439 44.9613 24.891 41.5125 25.2521 41.0695C25.8017 40.4209 26.7124 40.3418 27.4818 40.8639ZM32.5848 44.8348C33.3856 45.6416 33.3228 46.1953 32.2237 48.1254C31.7369 48.9797 31.2031 49.7074 31.0461 49.7707C30.6064 49.8973 28.4239 48.6316 28.3139 48.1729C28.2511 47.8881 28.4553 47.3977 29.099 46.2902C29.5858 45.4676 30.1354 44.6766 30.3238 44.55C30.5122 44.4076 30.9832 44.2969 31.3601 44.2969C31.9411 44.2969 32.1452 44.3918 32.5848 44.8348ZM44.157 49.5492C46.0255 50.6408 46.371 50.9098 46.5751 51.3844C47.0147 52.4602 46.3082 53.71 45.1619 53.8998C44.6438 53.9789 44.314 53.8365 42.1472 52.5867L39.7134 51.1787V50.3877C39.6977 48.4418 38.2061 46.7965 36.1491 46.4326C35.5211 46.3377 35.5054 46.3219 35.4268 45.5941C35.3954 45.1828 35.3012 44.724 35.2384 44.5658C35.1285 44.3127 36.4475 45.0562 44.157 49.5492ZM36.3218 48.948C37.3268 49.3752 37.6408 50.451 37.0755 51.5584C36.6359 52.4602 36.4789 52.4602 35.05 51.6533C33.6211 50.8307 33.5112 50.6408 34.0608 49.7549C34.3591 49.2645 35.1599 48.7424 35.5996 48.7266C35.7095 48.7266 36.0392 48.8215 36.3218 48.948Z" fill="#EEEEEE"/>
</svg>
