<svg width="20" height="25" viewBox="0 0 80 55" fill="none" xmlns="http://www.w3.org/2000/svg">
<path d="M38.1843 0.048597C37.875 0.0814095 36.8166 0.196253 35.8233 0.294691C24.3435 1.45953 12.1148 7.05407 2.52391 15.5689C0.472216 17.39 0 18.2267 0 20.0478C0 21.8689 0.472216 22.7056 2.52391 24.5267C12.1473 33.058 23.6271 38.3244 35.9047 39.8502C38.4775 40.1783 45.3979 40.1127 48.0357 39.7517C55.1353 38.7838 60.9973 36.9134 67.4943 33.5666C70.7021 31.9095 72.7049 30.6627 73.0143 30.1213C73.34 29.5306 73.1283 28.8908 72.5258 28.5791C71.9234 28.2509 71.7117 28.3166 69.9531 29.383C65.41 32.1556 60.5413 34.2884 55.4609 35.7322C54.5165 35.9947 53.7023 36.208 53.6209 36.208C53.5395 36.208 53.8977 35.847 54.4188 35.4041C57.9523 32.4509 60.5576 27.8244 61.3066 23.1978C61.5183 21.8853 61.5183 18.2103 61.3066 16.8978C60.5576 12.2548 57.9686 7.6611 54.4188 4.67516C53.8977 4.2486 53.5395 3.88766 53.6046 3.88766C53.914 3.88766 56.8124 4.74078 58.5385 5.33141C64.9867 7.54625 71.4186 11.172 77.134 15.7822C79.8045 17.9314 80.6349 18.8009 80.7815 19.5228C81.0094 20.8025 80.6838 21.2947 78.5344 23.1322C75.3428 25.8392 75.4243 25.7572 75.4243 26.3642C75.4243 26.7252 75.5382 27.0041 75.7825 27.2173C76.4827 27.7752 76.9712 27.6111 78.6809 26.233C82.5238 23.1486 83.1914 22.2298 83.2077 20.0478C83.2077 18.8994 83.1426 18.6205 82.7192 17.833C82.1656 16.8322 80.3093 15.0931 77.2643 12.7634C68.2596 5.85641 58.4896 1.70563 48.1172 0.360316C46.212 0.114222 39.4707 -0.0990592 38.1843 0.048597ZM45.8864 2.96891C52.074 4.56032 56.8613 9.38375 58.571 15.7002C58.8967 16.9142 58.9456 17.472 58.9456 20.0478C58.9456 22.6236 58.8967 23.1814 58.571 24.3955C56.8613 30.7119 52.1391 35.4697 45.8864 37.1431C44.4697 37.5205 43.9812 37.5697 41.6038 37.5697C39.2102 37.5697 38.738 37.5205 37.2888 37.1431C30.7917 35.3877 25.8253 30.1541 24.4738 23.5752C24.197 22.2627 24.1644 21.5736 24.2296 19.2439C24.2947 16.5041 24.2947 16.4548 23.9202 16.0775C23.1549 15.3064 22.129 15.7822 21.8848 17.0127C21.7056 18.0298 21.7056 21.9673 21.901 23.1978C22.6501 27.8408 25.2391 32.4345 28.7889 35.4205C29.3099 35.847 29.6682 36.208 29.603 36.208C29.2937 36.208 26.3952 35.3548 24.6692 34.7642C19.4585 32.9759 13.9548 30.0884 9.10237 26.6267C6.70872 24.9041 3.11011 21.9181 2.71931 21.3111C2.3448 20.7369 2.3448 19.3588 2.71931 18.7845C3.46834 17.6361 9.39547 13.0752 13.0592 10.8439C17.7 8.00563 23.6596 5.38063 27.991 4.28141C28.5446 4.15016 29.1308 3.9861 29.3099 3.93688C29.4891 3.88766 29.0006 4.44547 28.219 5.18375C27.4374 5.92203 26.4278 7.00485 25.9556 7.59547C24.8483 8.99 23.6922 11.0572 23.6922 11.6314C23.6922 12.7963 25.2391 13.1572 25.8905 12.14C26.0696 11.8611 26.5744 11.0408 27.0303 10.3353C29.5379 6.33219 34.1624 3.37907 39.1288 2.57516C40.7734 2.31266 44.0952 2.50953 45.8864 2.96891Z" fill="white"/>
<path d="M40.3826 10.4502C37.1911 10.8767 34.3252 12.9931 32.9574 15.9298C31.671 18.7353 31.671 21.3767 32.99 24.215C33.4948 25.2978 33.8693 25.8392 34.8788 26.8564C36.8166 28.7923 38.9334 29.6947 41.6038 29.6947C44.2743 29.6947 46.3911 28.7923 48.3289 26.8564C49.3384 25.8392 49.7129 25.2978 50.2177 24.215C50.576 23.4603 50.9342 22.3939 51.0319 21.8689C51.4227 19.7525 51.1784 17.9314 50.2177 15.8806C49.3547 14.0267 47.6124 12.2384 45.8375 11.4017C44.0138 10.5322 42.2063 10.2205 40.3826 10.4502ZM43.395 13.0916C45.7561 13.633 47.8729 15.7658 48.508 18.2431C49.371 21.5244 47.8078 24.9533 44.7954 26.4462C39.3079 29.1697 33.1528 24.1986 34.6834 18.2759C35.2208 16.2087 36.5235 14.5845 38.396 13.6494C40.0732 12.8291 41.4899 12.665 43.395 13.0916Z" fill="white"/>
</svg>
