<svg width="55" height="40" viewBox="0 0 55 40" fill="none" xmlns="http://www.w3.org/2000/svg">
<path fill-rule="evenodd" clip-rule="evenodd" d="M50.3125 34.4687H38.9062V27.625H50.3125V34.4687ZM50.3125 23.0625V11.6562H38.9062V0.25H22.9375H18.375H4.6875V11.6562H0.125V27.625H4.6875V39.0312H18.375H22.9375H34.3438H38.9062H54.875V23.0625H50.3125ZM45.75 23.0625V16.2187H38.9062H34.3438V23.0625H38.9062H45.75ZM34.3438 27.625H29.7812H22.9375V34.4687H34.3438V27.625ZM29.7812 16.2187V23.0625H18.375V16.2187H22.9375H29.7812ZM18.375 27.625V34.4687H9.25V27.625H18.375ZM34.3438 4.8125H22.9375V11.6562H34.3438V4.8125ZM4.6875 16.2187V23.0625H13.8125V16.2187H4.6875ZM9.25 11.6562H18.375V4.8125H9.25V11.6562Z" fill="white"/>
</svg>
