<svg width="518" height="128" viewBox="0 0 518 128" fill="none" xmlns="http://www.w3.org/2000/svg">
<path d="M75.639 9.79599L67.5038 36.6388C67.5038 36.6388 54.3758 30.9834 41.7054 34.1612C41.7054 34.1612 32.7426 37.3861 36.4973 43.5734C40.2452 49.7606 62.9282 51.2822 62.9282 51.2822C62.9282 51.2822 45.1169 72.4562 43.1117 76.4351C43.1117 76.4351 14.4805 72.4831 6.57408 61.2532C6.57408 61.2532 2.39546 57.0722 0.504655 46.6973C0.504655 46.6973 -2.47623 23.5507 17.744 13.5191C37.9641 3.48755 58.3997 5.66891 75.639 9.79599Z" fill="white"/>
<path d="M22.2187 113.821C22.2187 113.821 33.8999 89.6983 35.7369 88.3787C35.7369 88.3787 20.449 85.9146 11.5131 79.6129L0 105.742C0 105.742 9.7972 111.929 22.2187 113.821Z" fill="white"/>
<path d="M388.241 113.134L435.7 6.04593H470.918L518 112.973L481.409 112.959L453.369 41.0015L452.172 40.9948H451.903L424.476 113.134H388.241Z" fill="white"/>
<path d="M453.295 57.254L427.766 127.919L479.175 128L453.295 57.254Z" fill="#FD8700"/>
<path d="M108.974 10.0248C108.974 10.0248 53.5885 42.0854 20.8594 115.868C20.8594 115.868 28.9946 117.713 32.8569 117.571C36.7193 117.43 33.6173 87.894 108.974 10.0248Z" fill="#FD8700"/>
<path d="M126.489 0L107.48 18.1645L110.743 20.1102L126.489 0Z" fill="#FD8700"/>
<path d="M105.407 20.1103L93.2955 33.7034L98.6046 36.5648L108.974 22.1436L105.407 20.1103Z" fill="#FD8700"/>
<path d="M90.8394 36.9821L76.009 56.0084L83.828 60.5058L96.7944 39.8233L90.8394 36.9821Z" fill="#FD8700"/>
<path d="M73.7751 60.048C73.7751 60.048 60.7481 79.761 59.7993 82.683L70.9356 86.1368C70.9356 86.1368 78.021 68.733 82.1458 64.0943L73.7751 60.048Z" fill="#FD8700"/>
<path d="M123.212 10.0518C123.212 10.0518 98.6583 51.6794 88.9217 99.6962C88.9217 99.6962 83.3098 108.408 74.3739 111.842C65.438 115.275 102.211 32.5992 123.212 10.0518Z" fill="#FD8700"/>
<path d="M58.144 86.9043C58.144 86.9043 46.6309 108.092 45.7764 118.016C45.7764 118.016 55.0083 118.749 61.0239 116.514C61.0239 116.514 62.0534 103.19 69.4821 90.6005L58.144 86.9043Z" fill="#FD8700"/>
<path d="M247.056 112.623H279.355V65.7505H280.559L303.121 102.537L319.102 102.712L342.121 64.3165H342.754V112.623H375.624V5.76314H346.017L312.057 62.4313L310.967 62.4852L276.724 5.76314L247.056 5.87759V112.623Z" fill="white"/>
<path d="M175.367 114.521C158.256 114.521 144.313 109.633 133.541 99.851C122.761 90.0686 117.378 77.3238 117.378 61.6099C117.378 45.0208 122.848 31.6028 133.79 21.3558C144.731 11.1088 159.231 5.98528 177.285 5.98528C194.336 5.98528 208.13 10.8866 218.654 20.696C229.178 30.5054 234.44 43.4319 234.44 59.4824C234.44 75.9773 228.983 89.2674 218.068 99.3663C207.154 109.472 192.916 114.521 175.367 114.521ZM176.531 26.3312C167.091 26.3312 159.588 29.4416 154.037 35.6625C148.479 41.8834 145.706 50.1174 145.706 60.3644C145.706 70.7595 148.485 78.98 154.037 85.0259C159.588 91.0785 166.869 94.1014 175.865 94.1014C185.144 94.1014 192.499 91.1592 197.942 85.2817C203.386 79.4042 206.104 71.2443 206.104 60.802C206.104 49.9221 203.467 41.4593 198.191 35.4067C192.916 29.3541 185.696 26.3312 176.531 26.3312Z" fill="white"/>
</svg>
